<svg width="27" height="27" viewBox="0 0 27 27" fill="none" xmlns="http://www.w3.org/2000/svg">
<path d="M13.4985 3.02291L13.4999 3.02291C15.5721 3.0229 17.5977 3.63737 19.3207 4.78861C21.0436 5.93985 22.3865 7.57615 23.1795 9.4906C23.9725 11.405 24.18 13.5117 23.7757 15.544C23.3715 17.5764 22.3736 19.4432 20.9084 20.9085L21.2619 21.262L20.9084 20.9085C18.9435 22.8733 16.2786 23.9772 13.4999 23.9772C10.7212 23.9772 8.05627 22.8733 6.09143 20.9085C4.12658 18.9436 3.02274 16.2787 3.02274 13.5C3.02274 10.7213 4.12658 8.05641 6.09143 6.09157L6.09239 6.0906C7.06271 5.11497 8.21691 4.34149 9.48818 3.81491C10.7594 3.28834 12.1225 3.01915 13.4985 3.02291ZM13.4999 23.5135C19.0218 23.5135 23.5134 19.0219 23.5134 13.5C23.5134 7.97815 19.0218 3.48652 13.4999 3.48652C7.97801 3.48652 3.48638 7.97815 3.48638 13.5C3.48638 19.0219 7.97801 23.5135 13.4999 23.5135Z" fill="white" stroke="white"/>
<path d="M13.4998 9.62712L19.1399 15.2673L18.105 16.3021L13.4998 11.697L8.89458 16.3021L7.85971 15.2673L13.4998 9.62712Z" fill="white"/>
</svg>
