<svg width="71" height="71" viewBox="0 0 71 71" fill="none" xmlns="http://www.w3.org/2000/svg">
<path fill-rule="evenodd" clip-rule="evenodd" d="M51.0245 35.0601C51.0245 43.5702 44.0904 50.4689 35.5368 50.4689C26.9832 50.4689 20.0491 43.5702 20.0491 35.0601C20.0491 26.5501 26.9832 19.6513 35.5368 19.6513C44.0904 19.6513 51.0245 26.5501 51.0245 35.0601ZM48.1279 35.0601C48.1279 41.9786 42.4907 47.5871 35.5368 47.5871C28.5829 47.5871 22.9457 41.9786 22.9457 35.0601C22.9457 28.1416 28.5829 22.5331 35.5368 22.5331C42.4907 22.5331 48.1279 28.1416 48.1279 35.0601Z" fill="white"/>
<path fill-rule="evenodd" clip-rule="evenodd" d="M5.90667 42.742L7.83047 43.0108L9.57315 43.2805L11.31 47.3126L8.92029 50.4781L8.71277 50.7395C6.57038 53.3857 6.74552 55.87 8.71278 57.8272L12.5663 61.6611C14.5335 63.6184 17.5354 63.7183 19.7289 61.6995L21.5562 60.2825L23.088 59.1687L27.0132 60.7308L27.1827 60.8031L27.742 64.7175L27.7809 65.0483C28.1468 68.4266 30.0363 70.0601 32.8184 70.0601H38.2681C41.0502 70.0601 43.2439 68.0189 43.3601 65.0483L43.6686 62.572L43.985 60.8012L45.2229 60.2733L47.9985 59.1687L50.2394 60.798L50.2681 60.784L51.4436 61.6955C53.6371 63.7143 56.6389 63.6144 58.6062 61.6572L62.4597 57.8233C64.4269 55.866 64.6021 53.3817 62.4597 50.7355L62.2522 50.4742L59.8624 47.3087L61.5993 43.2765L63.9967 42.9055L65.1668 42.742L65.4993 42.7037C68.8949 42.3441 70.5367 40.487 70.5367 37.7525V32.3962C70.5367 29.6618 68.4851 27.5057 65.4993 27.3915L63.8046 27.185L61.5993 26.8437L59.8624 22.8116L62.2521 19.6461L62.4597 19.3848C64.602 16.7385 64.4269 14.2542 62.4596 12.297L58.6061 8.46309C56.6389 6.50585 53.637 6.40593 51.4435 8.42473L50.2681 9.33625L50.2393 9.32226L47.9984 10.9515L45.2229 9.84691L43.9849 9.31908L43.6686 7.54823L43.3601 5.07194C43.2438 2.1013 41.0502 0.0601196 38.2681 0.0601196H32.8184C30.0363 0.0601196 28.1467 1.6936 27.7809 5.07194L27.7419 5.4027L27.1826 9.31716L27.0132 9.38942L23.088 10.9515L21.5561 9.83774L19.7289 8.42075C17.5354 6.40196 14.5335 6.50187 12.5662 8.45911L8.71274 12.293C6.74548 14.2502 6.57034 16.7346 8.71273 19.3808L8.92025 19.6421L11.31 22.8076L9.57311 26.8397L7.61285 27.1431L5.57421 27.3915C2.58837 27.5057 0.536743 29.6618 0.536743 32.3962V37.7525C0.536743 40.487 2.17858 42.3441 5.57422 42.7037L5.90667 42.742ZM38.2598 2.94192H32.8267C31.6442 2.94192 30.6857 3.89556 30.6857 5.07194L30.2385 9.1835C30.2385 9.1835 30.1339 11.2389 29.4229 11.6589C29.1736 11.8062 28.8562 11.9739 28.4962 12.1509C28.4185 12.1894 28.3375 12.2286 28.2537 12.2685C27.3604 12.6961 26.2596 13.163 25.288 13.5242C24.3014 13.9085 23.4636 14.2079 23.2108 14.272C22.5311 14.4444 20.883 13.0525 20.883 13.0525L18.6539 11.3018C18.4385 11.1344 18.2607 10.9941 18.1361 10.8952L17.6363 10.5027C16.8002 9.67084 15.4446 9.67084 14.6086 10.5027L10.7668 14.3249C9.93067 15.1567 9.93067 16.5054 10.7667 17.3372L13.3727 20.5592C13.3727 20.5592 14.7596 22.0861 14.5553 22.8834C14.1274 24.5535 12.4985 28.4466 11.8433 29.0984C11.512 29.4279 9.96555 29.7343 8.51738 29.9566L8.47777 29.9627C7.59284 30.0977 6.7492 30.2012 6.24775 30.2591L5.62259 30.3422C4.41073 30.4089 3.43329 31.2422 3.43329 32.4044L3.43329 37.7444C3.43329 38.9066 4.39181 39.8487 5.57422 39.8487L7.92608 40.0988V40.1108C9.19573 40.2554 11.3844 40.5652 11.8433 41.0219C12.4985 41.6737 14.1275 45.5667 14.5554 47.2369C14.7596 48.0341 13.3727 49.5611 13.3727 49.5611L10.7668 52.783C9.9307 53.6148 9.93071 54.9635 10.7668 55.7953L14.6086 59.6176C15.4447 60.4494 16.8003 60.4494 17.6363 59.6176L18.1362 59.225C18.2607 59.1261 18.4386 58.9858 18.6539 58.8184L20.883 57.0677C20.883 57.0677 22.5311 55.6759 23.2108 55.8483C23.4636 55.9124 24.3015 56.2117 25.2881 56.5961C26.2596 56.9572 27.3605 57.4241 28.2538 57.8517C28.3375 57.8916 28.4185 57.9309 28.4963 57.9693C28.8563 58.1464 29.1736 58.314 29.4229 58.4613C30.1339 58.8813 30.2385 60.9367 30.2385 60.9367L30.6858 65.0483C30.6858 66.2247 31.6443 67.1783 32.8267 67.1783H38.2598C39.4422 67.1783 40.4008 66.2247 40.4008 65.0483L40.8842 60.9612C40.8842 60.9612 41.0604 58.8176 41.6636 58.4613C41.7971 58.3824 42.1366 58.2166 42.5944 58.0061C44.2233 57.1874 47.4227 55.981 47.9616 55.8443C48.6414 55.6719 50.2895 57.0637 50.2895 57.0637L53.5361 59.6136C54.3722 60.4454 55.7278 60.4454 56.5639 59.6136L60.4057 55.7913C61.2418 54.9595 61.2418 53.6109 60.4057 52.779L57.7997 49.5571C57.7997 49.5571 56.4128 48.0301 56.6171 47.2329C57.045 45.5627 58.674 41.6697 59.3291 41.0179C59.9843 40.3661 63.9118 40.0175 63.9118 40.0175L65.4993 39.8487C66.6817 39.8487 67.6402 38.9066 67.6402 37.7444V32.4044C67.6402 31.2422 66.6628 30.4089 65.4509 30.3422L64.5579 30.2197C63.0134 30.0327 59.8226 29.5933 59.3291 29.1024C58.6739 28.4505 57.045 24.5575 56.617 22.8873C56.4128 22.0901 57.7997 20.5632 57.7997 20.5632L60.4056 17.3412C61.2417 16.5094 61.2417 15.1607 60.4056 14.3289L56.5638 10.5066C55.7277 9.67482 54.3722 9.67481 53.5361 10.5066L50.2894 13.0565C50.2894 13.0565 48.6413 14.4483 47.9616 14.2759C47.4226 14.1393 44.2232 12.9329 42.5944 12.1141C42.1366 11.9037 41.7971 11.7378 41.6636 11.6589C41.0604 11.3026 40.8842 9.15903 40.8842 9.15903L40.4007 5.07194C40.4007 3.89556 39.4422 2.94192 38.2598 2.94192Z" fill="white"/>
</svg>
