<svg width="42" height="42" viewBox="0 0 42 42" fill="none">
<circle cx="20.5591" cy="21.1593" r="20.5" fill="#C6DEEC"/>
<path d="M13.8289 25.6593L14.5007 24.2756C14.724 24.277 14.9503 24.2694 15.1775 24.2498C15.2428 24.2446 15.3075 24.2362 15.3718 24.2278C15.3843 24.2262 15.3969 24.2245 15.4095 24.2229L16.2311 25.5264M13.8289 25.6593L13.8499 25.4102C13.7931 25.4054 13.7363 25.4 13.6798 25.394M13.8289 25.6593C13.1361 25.6008 12.4651 25.4586 11.8248 25.2416M13.8289 25.6593L13.604 25.5501L13.6798 25.394M13.6798 25.394L14.2758 24.1664L14.3446 24.0246L14.5022 24.0256C14.7188 24.0269 14.9375 24.0195 15.1562 24.0008L15.1575 24.0006C15.216 23.9959 15.2737 23.9884 15.3378 23.9801C15.3508 23.9784 15.3641 23.9767 15.3776 23.975L15.5359 23.9547L15.6209 24.0896L16.3498 25.246M13.6798 25.394C13.1257 25.3357 12.5868 25.2221 12.0677 25.0581M16.3498 25.246C16.2942 25.2582 16.2382 25.27 16.1821 25.2812L16.2311 25.5264M16.3498 25.246L16.4426 25.3931L16.2311 25.5264M16.3498 25.246C16.8964 25.1253 17.4199 24.9535 17.9163 24.7341M16.2311 25.5264C16.9159 25.3895 17.5675 25.1752 18.1782 24.8897M18.1782 24.8897L17.9289 24.9077L17.9163 24.7341M18.1782 24.8897L18.0671 23.3525C18.332 23.2012 18.5873 23.0348 18.8307 22.8528L20.1913 23.5681M18.1782 24.8897L18.0723 24.6632C18.0206 24.6874 17.9686 24.711 17.9163 24.7341M17.9163 24.7341L17.8178 23.3705L17.8064 23.2135L17.9431 23.1355C18.1995 22.9889 18.4462 22.8281 18.681 22.6526L18.8074 22.5581L18.9471 22.6315L20.1536 23.2659M20.1536 23.2659C20.1115 23.3045 20.069 23.3427 20.026 23.3806L20.1913 23.5681M20.1536 23.2659L20.3076 23.3469L20.1913 23.5681M20.1536 23.2659C20.5591 22.8937 20.9269 22.4824 21.2514 22.038M20.1913 23.5681C20.7052 23.1154 21.1636 22.6032 21.5559 22.0418M21.5559 22.0418L21.349 22.182L21.2514 22.038M21.5559 22.0418L20.693 20.7682C20.8463 20.5065 20.9847 20.235 21.1064 19.9543L22.6418 19.8944L22.4051 19.814C22.4234 19.76 22.4412 19.7058 22.4584 19.6514M21.5559 22.0418L21.351 21.8986C21.3183 21.9454 21.2851 21.9919 21.2514 22.038M21.2514 22.038L20.486 20.9085L20.3976 20.778L20.4773 20.6419C20.6256 20.3886 20.7595 20.126 20.8771 19.8549L20.9396 19.7107L21.0967 19.7045L22.4584 19.6514M22.4584 19.6514C22.6227 19.1323 22.7359 18.5925 22.7939 18.0383L21.567 17.4441L21.4249 17.3752L21.426 17.2173C21.4275 17.0003 21.4197 16.7825 21.4003 16.5643L21.3999 16.5601L21.4 16.5601C21.3962 16.5082 21.3903 16.4591 21.3837 16.4035C21.3812 16.3825 21.3785 16.3605 21.3759 16.337L21.3581 16.1812L21.4907 16.0974L22.6452 15.3678C22.5256 14.8228 22.3534 14.2992 22.1336 13.8034L20.7701 13.9023L20.612 13.9138L20.5342 13.7757C20.3897 13.5191 20.2282 13.2725 20.0527 13.039L19.9576 12.9125L20.0313 12.7724L20.6656 11.5661C20.294 11.1608 19.8824 10.7929 19.438 10.4677L18.3079 11.2337L18.177 11.3224L18.0407 11.2421C17.7886 11.0935 17.5266 10.9601 17.2552 10.8433L17.1104 10.781L17.1042 10.6235L17.0507 9.26163C16.5317 9.09744 15.9915 8.98393 15.4378 8.92483L14.8433 10.1525L14.7744 10.2949L14.6161 10.2935C14.4002 10.2916 14.1835 10.3 13.9632 10.3189C13.9015 10.3243 13.8413 10.3316 13.7765 10.3394C13.7638 10.341 13.7509 10.3425 13.7378 10.3441L13.5808 10.3629L13.4965 10.2292L12.7682 9.07387C12.2225 9.19435 11.6985 9.36669 11.2021 9.58616L11.3014 10.9491L11.3129 11.107L11.1752 11.1849C10.9183 11.3302 10.6715 11.491 10.4393 11.6666L10.3127 11.7624L10.1721 11.6885L8.96466 11.0538C8.55857 11.426 8.19067 11.8374 7.86686 12.2819L8.63371 13.4115L8.72285 13.5428L8.64196 13.6793C8.49226 13.932 8.35792 14.1934 8.24253 14.463L8.18037 14.6083L8.0225 14.6145L6.65978 14.668C6.49572 15.187 6.38288 15.7264 6.3244 16.2813L7.55181 16.8754L7.69391 16.9442L7.69289 17.1021C7.69149 17.3198 7.69858 17.5374 7.71732 17.7556C7.72379 17.8281 7.73294 17.9001 7.74331 17.9777L7.76453 18.1367L7.62887 18.2222L6.47346 18.951C6.59415 19.4964 6.76587 20.0201 6.9854 20.5157L8.3482 20.417L8.50589 20.4056L8.5838 20.5432C8.72919 20.7999 8.89013 21.0457 9.06592 21.2802L9.16072 21.4067L9.08712 21.5465L8.45248 22.7527C8.82404 23.159 9.23632 23.5268 9.6807 23.8512L10.8103 23.085L10.9417 22.9959L11.0783 23.0769C11.3309 23.2269 11.5927 23.3605 11.8626 23.476L12.0079 23.5382L12.0141 23.696L12.0677 25.0581M22.4584 19.6514L11.8248 25.2416M11.8248 25.2416L11.905 25.0049C11.959 25.0232 12.0133 25.0409 12.0677 25.0581M11.8248 25.2416L12.0746 25.2318L12.0677 25.0581M9.2933 17.1597C9.2933 20.0633 11.655 22.4252 14.5595 22.4252C17.4631 22.4252 19.8251 20.0633 19.8251 17.1597C19.8251 14.2562 17.4631 11.8942 14.5595 11.8942C11.655 11.8942 9.2933 14.2562 9.2933 17.1597Z" stroke="#41566D" stroke-width="0.5"/>
<path d="M27.0167 22.3205L26.969 22.5659C26.9242 22.5572 26.8801 22.5501 26.8315 22.5424C26.8219 22.5408 26.8121 22.5393 26.8021 22.5376L26.646 22.5125L26.6018 22.3608L26.3256 21.4129C25.9382 21.3916 25.5552 21.4063 25.181 21.4554L24.9787 22.4223L24.9463 22.5772L24.7924 22.6142C24.5784 22.6656 24.3685 22.7302 24.1662 22.8083L24.0181 22.8655L23.9034 22.7558L23.1906 22.0744C22.8493 22.2477 22.525 22.452 22.2219 22.6849L22.53 23.6226L22.5796 23.7733L22.4642 23.8823C22.3049 24.0329 22.1549 24.1926 22.017 24.362L21.9173 24.4845L21.7638 24.447L20.8062 24.213C20.5994 24.5299 20.4209 24.8687 20.2733 25.2269L21.008 25.8841L21.1257 25.9893L21.0812 26.1408C21.0354 26.2969 20.9958 26.4544 20.9645 26.6144C20.9544 26.6669 20.9463 26.7199 20.9377 26.7782L20.9143 26.9369L20.7603 26.9818L19.8123 27.2582C19.7912 27.6455 19.8056 28.0281 19.8548 28.4018L20.8215 28.6045L20.9763 28.6369L21.0133 28.7906C21.0648 29.0045 21.1297 29.2138 21.2076 29.418L21.2639 29.5657L21.1546 29.6799L20.4735 30.3917C20.6464 30.733 20.8513 31.0575 21.0841 31.3609L22.0216 31.0533L22.1724 31.0038L22.2814 31.1193C22.4317 31.2787 22.5919 31.4282 22.7616 31.5663L22.8841 31.6661L22.8466 31.8195L22.6128 32.7768C22.9298 32.9835 23.2681 33.1624 23.6257 33.3098L24.2843 32.5752L24.3896 32.4579L24.5408 32.5022C24.6961 32.5477 24.8544 32.5873 25.0149 32.6187L25.0162 32.619C25.058 32.6274 25.0997 32.6337 25.1479 32.641C25.1578 32.6425 25.1679 32.644 25.1784 32.6456L25.3361 32.6697L25.3807 32.8228L25.6571 33.7716C26.0451 33.7929 26.4277 33.7784 26.8019 33.7295L27.0048 32.7622L27.0372 32.6082L27.19 32.5707C27.4042 32.5183 27.6141 32.4536 27.8185 32.376L27.966 32.3199L28.0801 32.429L28.7922 33.1099C29.1331 32.9365 29.4575 32.7322 29.7609 32.4995L29.4539 31.5623L29.4048 31.4124L29.5188 31.3036C29.6773 31.1523 29.8273 30.9914 29.9674 30.8211L30.0672 30.6997L30.2199 30.7371L31.1768 30.9712C31.3837 30.6541 31.5625 30.3152 31.7097 29.9574L30.9753 29.3002L30.8576 29.1949L30.9022 29.0434C30.9479 28.888 30.987 28.7303 31.0178 28.5701L31.0186 28.5659L31.0186 28.566C31.0264 28.5291 31.032 28.4942 31.0386 28.4531C31.0412 28.437 31.044 28.42 31.047 28.4016L31.0729 28.2469L31.2234 28.2028L32.1711 27.9256C32.1928 27.5388 32.1781 27.1562 32.1287 26.7823L31.1615 26.5796L31.0063 26.5471L30.9695 26.3929C30.9187 26.1794 30.8535 25.9696 30.7757 25.7662L30.7191 25.6184L30.8285 25.504L31.5094 24.792C31.3363 24.4513 31.1318 24.1269 30.8992 23.823L29.9615 24.1303L29.8112 24.1796L29.7023 24.0649C29.552 23.9065 29.3916 23.757 29.221 23.6176L29.0989 23.5179L29.1363 23.3647L29.3702 22.4076C29.0532 22.2008 28.7142 22.0217 28.3568 21.8739L27.6994 22.6087L27.5938 22.7266L27.4421 22.6817C27.2877 22.636 27.1306 22.5975 26.9687 22.5658L27.0167 22.3205ZM27.0167 22.3205C26.9674 22.3109 26.9185 22.3031 26.8698 22.2953C26.8605 22.2938 26.8511 22.2923 26.8418 22.2908L27.0167 22.3205ZM22.1124 26.481C21.4998 28.62 22.7411 30.8581 24.8807 31.4709C27.0197 32.0836 29.2579 30.8421 29.8706 28.7032C30.4832 26.5643 29.2417 24.326 27.1027 23.7134C24.9631 23.1005 22.7251 24.3421 22.1124 26.481Z" stroke="#41566D" stroke-width="0.5"/>
<path fill-rule="evenodd" clip-rule="evenodd" d="M15.0076 26.2252C15.196 26.2252 15.3787 26.2494 15.5528 26.2949L24.3404 18.398C24.3903 18.3524 24.4393 18.3168 24.489 18.2862C24.061 17.1467 24.3375 15.8122 25.2921 14.9408C26.2224 14.0916 27.5341 13.9235 28.6155 14.4072L26.537 16.3045L28.1845 18.1094L30.2631 16.212C30.6464 17.333 30.359 18.6233 29.4287 19.4724C28.4741 20.3439 27.1207 20.4986 26.0246 19.9684C25.9899 20.0154 25.9499 20.0609 25.9 20.1065L17.124 27.9924C17.1464 28.1168 17.1581 28.2449 17.1581 28.3757C17.1581 29.5633 16.1953 30.5261 15.0076 30.5261C13.82 30.5261 12.8572 29.5633 12.8572 28.3757C12.8572 27.188 13.82 26.2252 15.0076 26.2252ZM15.0769 29.3867C15.6117 29.3867 16.0452 28.9532 16.0452 28.4184C16.0452 27.8836 15.6117 27.45 15.0769 27.45C14.5421 27.45 14.1085 27.8836 14.1085 28.4184C14.1085 28.9532 14.5421 29.3867 15.0769 29.3867Z" fill="#41566D"/>
</svg>
