<svg width="26" height="22" viewBox="0 0 26 22" fill="CurrentColor">
<path d="M3.15973 11.4598C2.84746 11.157 2.84746 10.6559 3.15973 10.353L12.9352 0.872609C13.4241 0.398417 14.2428 0.744885 14.2428 1.42601V6.74203H17.1162C17.542 6.74203 17.8871 7.08717 17.8871 7.51293V14.5887C17.8871 15.0144 17.542 15.3596 17.1162 15.3596H14.2428V20.3869C14.2428 21.068 13.4241 21.4145 12.9352 20.9403L3.15973 11.4598Z"/>
<path d="M15.0589 0.734148H21.0398C23.3167 0.734148 25.1626 2.5146 25.1626 4.71089V17.1019C25.1626 19.2982 23.3167 21.0787 21.0398 21.0787H15.0589V19.0903H21.0398C22.1783 19.0903 23.1012 18.2001 23.1012 17.1019V4.71089C23.1012 3.61274 22.1783 2.72252 21.0398 2.72252H15.0589V0.734148Z"/>
<path d="M4.30663 6.97903L0.872081 10.3099C0.535478 10.6364 0.535478 11.1765 0.872081 11.5029L4.4752 14.9973H5.94547L2.34235 11.5029C2.00574 11.1765 2.00574 10.6364 2.34235 10.3099L5.7769 6.97903H4.30663Z"/>
</svg>
