<svg width="23" height="28" viewBox="0 0 23 28" fill="none" xmlns="http://www.w3.org/2000/svg">
<path fill-rule="evenodd" clip-rule="evenodd" d="M14.1611 1.94523C16.3969 2.67942 18.0681 4.65875 18.3546 7.06311H17.9159C18.7607 7.06393 19.4453 7.74903 19.4453 8.59402C19.4453 9.13531 19.1644 9.611 18.7404 9.88322C19.2595 10.2627 19.5966 10.8761 19.5966 11.5684C19.5966 12.7204 18.6627 13.6544 17.5106 13.6544H17.0518C16.7382 14.6721 16.1314 15.5612 15.3301 16.2231V17.7625H17.7631C20.4152 17.7625 22.5652 19.9124 22.5652 22.5646V26.5966C22.5652 27.0219 22.2204 27.3667 21.7951 27.3667H1.48687C1.06157 27.3667 0.716797 27.0219 0.716797 26.5966V22.5646C0.716797 19.9125 2.86679 17.7625 5.51893 17.7625H8.06291V16.3124C7.20658 15.6421 6.55809 14.7185 6.23021 13.6544H5.77137C4.61929 13.6544 3.68536 12.7204 3.68536 11.5684C3.68536 10.8761 4.02253 10.2627 4.54161 9.88322C4.11759 9.61101 3.83666 9.13532 3.83666 8.59402C3.83666 7.74903 4.52125 7.06393 5.36605 7.06311H4.9274C5.21384 4.65876 6.88504 2.67943 9.12089 1.94524C9.37474 1.11891 10.144 0.518188 11.0535 0.518188H12.2284C13.138 0.518188 13.9072 1.1189 14.1611 1.94523ZM9.03209 3.00546C7.37751 3.70081 6.15852 5.22772 5.8982 7.06311H17.3838C17.1235 5.22771 15.9045 3.7008 14.2499 3.00545V5.64661C14.2499 5.91242 14.0344 6.12791 13.7686 6.12791C13.5028 6.12791 13.2873 5.91242 13.2873 5.64661V2.53964C13.2873 1.95485 12.8132 1.48078 12.2284 1.48078H11.0535C10.4688 1.48078 9.99469 1.95485 9.99469 2.53964V5.64661C9.99469 5.91242 9.7792 6.12791 9.51339 6.12791C9.24758 6.12791 9.03209 5.91242 9.03209 5.64661V3.00546ZM21.6026 22.5646C21.6026 21.01 20.6787 19.6712 19.35 19.0673V26.4041H21.6026V22.5646ZM18.3874 26.4041V18.7756C18.1842 18.7423 17.9757 18.725 17.7631 18.725H17.3127V21.9585C17.3127 22.2243 17.0972 22.4398 16.8314 22.4398C16.5656 22.4398 16.3501 22.2243 16.3501 21.9585V18.725H14.9784L12.1594 21.6066V26.4041H18.3874ZM11.1968 26.4041V21.5467L8.40427 18.725H6.95715V21.9585C6.95715 22.2243 6.74167 22.4398 6.47585 22.4398C6.21004 22.4398 5.99455 22.2243 5.99455 21.9585V18.725H5.51893C5.36031 18.725 5.20394 18.7347 5.05036 18.7534L5.05036 26.4041H11.1968ZM4.08776 26.4041L4.08776 19.0007C2.67607 19.5681 1.67939 20.9499 1.67939 22.5646V26.4041H4.08776ZM14.3675 16.8586V17.7625H9.02551V16.9143C9.73755 17.261 10.5374 17.4556 11.3826 17.4556H11.8994C12.7888 17.4556 13.628 17.2401 14.3675 16.8586ZM11.7064 20.6932L9.75858 18.725H13.6317L11.7064 20.6932ZM5.36756 8.02571H17.9144C18.2283 8.02571 18.4827 8.28015 18.4827 8.59402C18.4827 8.90789 18.2283 9.16233 17.9144 9.16233H5.36756C5.05369 9.16233 4.79925 8.90789 4.79925 8.59402C4.79925 8.28015 5.05369 8.02571 5.36756 8.02571ZM17.2899 12.065V10.445H17.5106C18.1311 10.445 18.634 10.9479 18.634 11.5684C18.634 12.1888 18.1311 12.6918 17.5106 12.6918H17.2539C17.2777 12.4862 17.2899 12.277 17.2899 12.065ZM5.99209 10.445H5.77137C5.15092 10.445 4.64795 10.9479 4.64795 11.5684C4.64795 12.1888 5.15092 12.6918 5.77137 12.6918H6.02813C6.00432 12.4862 5.99209 12.277 5.99209 12.065V10.445ZM6.95468 10.1249H16.3273V12.065C16.3273 14.5105 14.3448 16.493 11.8994 16.493H11.3826C8.93714 16.493 6.95468 14.5105 6.95468 12.065V10.1249Z" fill="white"/>
</svg>
